HIERARCHY
ROOT Hips
{
	OFFSET 0.000000 121.760803 0.000000
	CHANNELS 6 Xposition Yposition Zposition Xrotation Yrotation Zrotation 
	JOINT Spine
	{
		OFFSET 0.072000 7.257294 -0.789700
		CHANNELS 3 Xrotation Yrotation Zrotation
		JOINT Spine1
		{
			OFFSET 0.000000 12.508769 -0.658067
			CHANNELS 3 Xrotation Yrotation Zrotation
			JOINT Spine1_split
			{
				OFFSET 0.000000 12.508769 -0.658067
				CHANNELS 3 Xrotation Yrotation Zrotation
				JOINT Spine2
				{
					OFFSET 0.000000 12.508769 -0.658067
					CHANNELS 3 Xrotation Yrotation Zrotation
					JOINT Neck
					{
						OFFSET 0.000000 14.033295 7.520400
						CHANNELS 3 Xrotation Yrotation Zrotation
						JOINT Head
						{
							OFFSET 0.000000 8.198502 5.703100
							CHANNELS 3 Xrotation Yrotation Zrotation
							JOINT HeadTop_End
							{
								OFFSET 0.000000 17.760803 13.332701
								CHANNELS 3 Xrotation Yrotation Zrotation
								End Site
								{
									OFFSET 0.000000 0.000000 0.000000
								}
							}
						}
					}
					JOINT LeftShoulder
					{
						OFFSET 6.292450 5.785301 -0.669000
						CHANNELS 3 Xrotation Yrotation Zrotation
						JOINT LeftShoulder_split
						{
							OFFSET 6.292450 5.785301 -0.669000
							CHANNELS 3 Xrotation Yrotation Zrotation
							JOINT LeftArm
							{
								OFFSET 13.907140 -6.093903 1.965100
								CHANNELS 3 Xrotation Yrotation Zrotation
								JOINT LeftForeArm
								{
									OFFSET 34.140198 0.000000 0.000000
									CHANNELS 3 Xrotation Yrotation Zrotation
									JOINT LeftHand
									{
										OFFSET 40.960209 0.000000 0.000000
										CHANNELS 3 Xrotation Yrotation Zrotation
										JOINT LeftHandThumb1
										{
											OFFSET 10.006996 -7.170425 9.573125
											CHANNELS 3 Xrotation Yrotation Zrotation
											JOINT LeftHandThumb2
											{
												OFFSET 1.835007 -1.059448 1.059443
												CHANNELS 3 Xrotation Yrotation Zrotation
												JOINT LeftHandThumb3
												{
													OFFSET 2.112267 -1.219513 1.219518
													CHANNELS 3 Xrotation Yrotation Zrotation
													JOINT LeftHandThumb4
													{
														OFFSET 4.843811 -2.796570 2.796576
														CHANNELS 3 Xrotation Yrotation Zrotation
														End Site
														{
															OFFSET 0.000000 0.000000 0.000000
														}
													}
												}
											}
										}
										JOINT LeftHandIndex1
										{
											OFFSET 18.389847 -0.922348 4.596882
											CHANNELS 3 Xrotation Yrotation Zrotation
											JOINT LeftHandIndex2
											{
												OFFSET 4.711273 0.000000 0.000000
												CHANNELS 3 Xrotation Yrotation Zrotation
												JOINT LeftHandIndex3
												{
													OFFSET 2.886131 0.000000 0.000000
													CHANNELS 3 Xrotation Yrotation Zrotation
													JOINT LeftHandIndex4
													{
														OFFSET 6.145912 0.000000 0.000000
														CHANNELS 3 Xrotation Yrotation Zrotation
														End Site
														{
															OFFSET 0.000000 0.000000 0.000000
														}
													}
												}
											}
										}
										JOINT LeftHandMiddle1
										{
											OFFSET 18.013008 0.000000 0.000000
											CHANNELS 3 Xrotation Yrotation Zrotation
											JOINT LeftHandMiddle2
											{
												OFFSET 4.946693 0.000000 0.000000
												CHANNELS 3 Xrotation Yrotation Zrotation
												JOINT LeftHandMiddle3
												{
													OFFSET 3.342232 0.000000 0.000000
													CHANNELS 3 Xrotation Yrotation Zrotation
													JOINT LeftHandMiddle4
													{
														OFFSET 4.461754 0.000000 0.000000
														CHANNELS 3 Xrotation Yrotation Zrotation
														End Site
														{
															OFFSET 0.000000 0.000000 0.000000
														}
													}
												}
											}
										}
										JOINT LeftHandRing1
										{
											OFFSET 15.849892 -0.102921 -4.126150
											CHANNELS 3 Xrotation Yrotation Zrotation
											JOINT LeftHandRing2
											{
												OFFSET 3.527054 0.000000 0.000000
												CHANNELS 3 Xrotation Yrotation Zrotation
												JOINT LeftHandRing3
												{
													OFFSET 2.961098 0.000000 0.000000
													CHANNELS 3 Xrotation Yrotation Zrotation
													JOINT LeftHandRing4
													{
														OFFSET 4.927200 0.000000 0.000000
														CHANNELS 3 Xrotation Yrotation Zrotation
														End Site
														{
															OFFSET 0.000000 0.000000 0.000000
														}
													}
												}
											}
										}
										JOINT LeftHandPinky1
										{
											OFFSET 12.791824 -0.832031 -6.799156
											CHANNELS 3 Xrotation Yrotation Zrotation
											JOINT LeftHandPinky2
											{
												OFFSET 3.327133 0.000000 0.000000
												CHANNELS 3 Xrotation Yrotation Zrotation
												JOINT LeftHandPinky3
												{
													OFFSET 3.014900 0.000000 0.000000
													CHANNELS 3 Xrotation Yrotation Zrotation
													JOINT LeftHandPinky4
													{
														OFFSET 5.847786 0.000000 0.000000
														CHANNELS 3 Xrotation Yrotation Zrotation
														End Site
														{
															OFFSET 0.000000 0.000000 0.000000
														}
													}
												}
											}
										}
									}
								}
							}
						}
					}
					JOINT RightShoulder
					{
						OFFSET -6.292450 5.785301 -0.669000
						CHANNELS 3 Xrotation Yrotation Zrotation
						JOINT RightShoulder_split
						{
							OFFSET -6.292450 5.785301 -0.669000
							CHANNELS 3 Xrotation Yrotation Zrotation
							JOINT RightArm
							{
								OFFSET -13.907140 -6.093903 1.965100
								CHANNELS 3 Xrotation Yrotation Zrotation
								JOINT RightForeArm
								{
									OFFSET -34.140198 0.000000 0.000000
									CHANNELS 3 Xrotation Yrotation Zrotation
									JOINT RightHand
									{
										OFFSET -40.960209 0.000000 0.000000
										CHANNELS 3 Xrotation Yrotation Zrotation
										JOINT RightHandThumb1
										{
											OFFSET -10.007050 -7.170456 9.573117
											CHANNELS 3 Xrotation Yrotation Zrotation
											JOINT RightHandThumb2
											{
												OFFSET -1.835007 -1.059448 1.059443
												CHANNELS 3 Xrotation Yrotation Zrotation
												JOINT RightHandThumb3
												{
													OFFSET -2.112267 -1.219513 1.219518
													CHANNELS 3 Xrotation Yrotation Zrotation
													JOINT RightHandThumb4
													{
														OFFSET -4.843834 -2.796585 2.796590
														CHANNELS 3 Xrotation Yrotation Zrotation
														End Site
														{
															OFFSET 0.000000 0.000000 0.000000
														}
													}
												}
											}
										}
										JOINT RightHandIndex1
										{
											OFFSET -18.389870 -0.922424 4.596786
											CHANNELS 3 Xrotation Yrotation Zrotation
											JOINT RightHandIndex2
											{
												OFFSET -4.711273 0.000000 0.000000
												CHANNELS 3 Xrotation Yrotation Zrotation
												JOINT RightHandIndex3
												{
													OFFSET -2.886131 0.000000 0.000000
													CHANNELS 3 Xrotation Yrotation Zrotation
													JOINT RightHandIndex4
													{
														OFFSET -6.145920 0.000000 0.000000
														CHANNELS 3 Xrotation Yrotation Zrotation
														End Site
														{
															OFFSET 0.000000 0.000000 0.000000
														}
													}
												}
											}
										}
										JOINT RightHandMiddle1
										{
											OFFSET -18.013008 0.000000 0.000000
											CHANNELS 3 Xrotation Yrotation Zrotation
											JOINT RightHandMiddle2
											{
												OFFSET -4.946693 0.000000 0.000000
												CHANNELS 3 Xrotation Yrotation Zrotation
												JOINT RightHandMiddle3
												{
													OFFSET -3.342232 0.000000 0.000000
													CHANNELS 3 Xrotation Yrotation Zrotation
													JOINT RightHandMiddle4
													{
														OFFSET -4.461754 0.000000 0.000000
														CHANNELS 3 Xrotation Yrotation Zrotation
														End Site
														{
															OFFSET 0.000000 0.000000 0.000000
														}
													}
												}
											}
										}
										JOINT RightHandRing1
										{
											OFFSET -15.849876 -0.102936 -4.126237
											CHANNELS 3 Xrotation Yrotation Zrotation
											JOINT RightHandRing2
											{
												OFFSET -3.527054 0.000000 0.000000
												CHANNELS 3 Xrotation Yrotation Zrotation
												JOINT RightHandRing3
												{
													OFFSET -2.961098 0.000000 0.000000
													CHANNELS 3 Xrotation Yrotation Zrotation
													JOINT RightHandRing4
													{
														OFFSET -4.927200 0.000000 0.000000
														CHANNELS 3 Xrotation Yrotation Zrotation
														End Site
														{
															OFFSET 0.000000 0.000000 0.000000
														}
													}
												}
											}
										}
										JOINT RightHandPinky1
										{
											OFFSET -12.791786 -0.832077 -6.799222
											CHANNELS 3 Xrotation Yrotation Zrotation
											JOINT RightHandPinky2
											{
												OFFSET -3.327133 0.000000 0.000000
												CHANNELS 3 Xrotation Yrotation Zrotation
												JOINT RightHandPinky3
												{
													OFFSET -3.014900 0.000000 0.000000
													CHANNELS 3 Xrotation Yrotation Zrotation
													JOINT RightHandPinky4
													{
														OFFSET -5.847786 0.000000 0.000000
														CHANNELS 3 Xrotation Yrotation Zrotation
														End Site
														{
															OFFSET 0.000000 0.000000 0.000000
														}
													}
												}
											}
										}
									}
								}
							}
						}
					}
				}
			}
		}
	}
	JOINT LeftUpLeg
	{
		OFFSET 13.026900 -6.336304 -1.092800
		CHANNELS 3 Xrotation Yrotation Zrotation
		JOINT LeftLeg
		{
			OFFSET 0.524474 -46.096886 9.782700
			CHANNELS 3 Xrotation Yrotation Zrotation
			JOINT LeftFoot
			{
				OFFSET -0.524474 -53.427422 -12.948200
				CHANNELS 3 Xrotation Yrotation Zrotation
				JOINT LeftToeBase
				{
					OFFSET 0.192200 -14.009700 16.364100
					CHANNELS 3 Xrotation Yrotation Zrotation
					JOINT LeftToe_End
					{
						OFFSET -1.784700 -0.561700 9.474800
						CHANNELS 3 Xrotation Yrotation Zrotation
						End Site
						{
							OFFSET 0.000000 0.000000 0.000000
						}
					}
				}
			}
		}
	}
	JOINT RightUpLeg
	{
		OFFSET -12.883000 -6.336304 -1.092800
		CHANNELS 3 Xrotation Yrotation Zrotation
		JOINT RightLeg
		{
			OFFSET -0.524587 -46.096825 9.782800
			CHANNELS 3 Xrotation Yrotation Zrotation
			JOINT RightFoot
			{
				OFFSET 0.524587 -53.427383 -12.948300
				CHANNELS 3 Xrotation Yrotation Zrotation
				JOINT RightToeBase
				{
					OFFSET -0.192200 -14.009700 16.364100
					CHANNELS 3 Xrotation Yrotation Zrotation
					JOINT RightToe_End
					{
						OFFSET 1.784700 -0.561700 9.474800
						CHANNELS 3 Xrotation Yrotation Zrotation
						End Site
						{
							OFFSET 0.000000 0.000000 0.000000
						}
					}
				}
			}
		}
	}
}
MOTION
Frames: 4
Frame Time: 0.016667
-3.034870 51.331871 99.175446 20.638132 -22.929047 -6.811322 5.376126 -0.821172 2.012197 -5.387900 1.463337 2.228128 0.000000 0.000000 0.000000 -5.408687 1.438964 2.129568 -64.248694 1.118113 14.686595 13.384888 14.022327 -18.292375 -0.000000 -0.000000 -0.000000 -18.927007 2.423269 -16.209299 0.000000 0.000000 0.000000 6.399254 13.475593 -49.024045 73.253314 -19.968927 30.111388 -15.141006 22.562577 -4.718126 -0.610184 -6.200721 8.854785 3.159794 21.613953 -1.887053 1.442462 2.915089 3.009418 0.000001 0.000001 -0.000000 13.340398 -1.006135 10.837317 -0.167770 0.303296 -30.950551 -0.143975 0.303753 -32.101261 -0.000001 -0.000000 -0.000001 8.497910 -0.331022 -0.760249 0.230678 0.660665 -29.746836 0.443139 0.213113 -44.201979 0.000000 0.000001 0.000000 6.113357 3.149171 -16.056047 0.047040 0.321378 -29.970402 0.407234 0.819056 -41.985589 -0.000001 0.000000 0.000002 -5.635378 7.708980 -13.723665 0.223790 0.276087 -46.433289 0.260511 0.249027 -46.131808 -0.000001 -0.000001 -0.000000 -18.645059 3.158379 16.723940 0.000000 0.000000 0.000000 7.365357 -4.012501 58.411655 156.201905 144.055793 -156.460701 58.447138 -8.915748 -6.382653 0.630122 8.367607 -11.244504 -0.724224 -13.326701 3.592247 2.095411 -8.839549 -7.437886 -0.000000 0.000001 -0.000000 19.441935 11.173345 -14.416332 -0.119648 -0.321778 16.959153 -0.093990 -0.286874 22.180105 -0.000000 -0.000001 0.000001 4.337925 2.446808 -5.888750 0.343352 -0.457181 25.813819 0.461078 0.156916 37.968441 0.000001 -0.000001 0.000000 -6.996716 -10.686236 4.645078 0.112036 -0.082033 25.079430 0.440446 -0.472355 32.188489 0.000000 -0.000000 0.000002 -19.430146 -20.234239 4.912561 0.220284 -0.081668 35.768116 0.256253 -0.044087 35.395184 0.000000 0.000000 0.000005 -4.881804 6.234960 -0.943667 89.941195 -11.752503 -1.092941 29.897609 -5.607948 -27.226666 -0.676340 0.771632 -0.079991 -0.000005 0.000001 0.000000 4.505347 9.279217 -6.731589 61.546951 9.418080 -14.556050 46.198310 7.060018 18.694276 13.783808 -1.925730 -2.028555 -0.000002 -0.000000 -0.000001 
-2.944489 51.132622 100.500290 21.679089 -23.106853 -6.800630 5.331214 -0.797624 2.092518 -5.487565 1.423591 2.351743 0.000000 0.000000 0.000000 -5.507078 1.408920 2.254500 -65.359555 0.986976 14.866086 13.903051 14.117408 -18.447576 -0.000004 -0.000000 0.000000 -19.123840 2.643943 -15.817979 0.000000 0.000000 0.000000 8.811190 13.503259 -48.194751 72.720082 -20.634396 30.098714 -17.435812 22.649372 -4.324280 -0.741602 -6.713003 8.749662 2.927771 21.139816 -1.929426 1.258422 2.425061 2.900824 -0.000001 -0.000001 0.000000 13.336300 -1.001509 12.126824 -0.169184 0.302503 -29.660960 -0.148753 0.304902 -30.811619 -0.000000 0.000001 0.000002 8.519034 -0.343219 0.529216 0.223467 0.656140 -28.457177 0.435294 0.210445 -42.912340 -0.000002 0.000001 -0.000003 6.127098 3.134674 -14.767304 0.046578 0.312735 -28.680876 0.394207 0.819607 -40.695882 -0.000001 -0.000002 0.000001 -5.629730 7.701551 -12.434854 0.218861 0.271847 -45.143726 0.254461 0.245877 -44.842186 0.000001 -0.000000 0.000000 -18.793153 2.934416 16.971143 0.000000 0.000000 0.000000 7.755221 -2.903530 58.461324 155.010132 141.216265 -155.160629 55.970204 -10.115521 -6.424043 0.621922 8.403520 -11.236687 -0.945201 -12.892622 3.661384 1.958200 -8.371716 -7.350301 -0.000000 -0.000001 -0.000002 19.440149 11.172230 -15.590173 -0.120695 -0.320700 15.784921 -0.098455 -0.287065 21.005951 -0.000000 -0.000001 -0.000001 4.357212 2.457256 -7.063569 0.337134 -0.452621 24.639609 0.454221 0.160143 36.794325 -0.000000 0.000000 0.000001 -6.986750 -10.676694 3.472833 0.112285 -0.074159 23.905268 0.428662 -0.470818 31.014342 -0.000002 -0.000000 0.000000 -19.426347 -20.229986 3.739707 0.216540 -0.077068 34.593911 0.251404 -0.040257 34.221054 -0.000001 0.000001 0.000001 -4.286929 5.507949 -1.506907 88.457076 -11.474350 -0.966824 30.023739 -5.657852 -27.243775 -0.846352 0.693694 -0.294563 -0.000002 0.000001 -0.000000 4.499834 8.818228 -6.579649 61.143491 9.941870 -14.285792 45.454571 6.991848 18.866004 14.199405 -2.844932 -2.132504 -0.000001 -0.000000 -0.000001 
-2.880660 50.895561 101.724487 22.770454 -23.216638 -6.761483 5.293771 -0.762455 2.163705 -5.579763 1.386651 2.467672 0.000000 0.000000 0.000000 -5.597971 1.382291 2.371570 -66.531725 0.851088 14.977230 14.412290 14.182154 -18.577616 -0.000003 0.000000 -0.000000 -19.324734 2.867698 -15.372847 0.000000 0.000000 0.000000 11.222555 12.997952 -47.136081 70.495858 -22.628977 28.974472 -19.002116 22.383117 -3.511833 -0.855964 -7.156671 8.657843 2.728069 20.728666 -1.967470 1.098264 2.000873 2.805650 -0.000001 0.000001 -0.000000 13.332688 -0.997570 13.243804 -0.170387 0.301684 -28.543907 -0.152932 0.305689 -29.694500 -0.000002 0.000002 -0.000000 8.537473 -0.353313 1.646220 0.217328 0.652121 -27.340043 0.428469 0.207895 -41.795311 -0.000001 -0.000001 0.000000 6.139199 3.122412 -13.651081 0.046413 0.305291 -27.563777 0.382888 0.819803 -39.578713 -0.000000 0.000003 -0.000001 -5.624714 7.695222 -11.318517 0.214612 0.268144 -44.026611 0.249322 0.243051 -43.725092 -0.000002 -0.000001 -0.000000 -18.954764 2.720318 17.238107 0.000000 0.000000 0.000000 8.007435 -1.543122 58.369007 156.553236 137.723552 -156.028896 51.277550 -11.257154 -6.118199 0.614077 8.437614 -11.229190 -1.155325 -12.479948 3.728697 1.827048 -7.927007 -7.266413 -0.000000 0.000002 0.000001 19.438408 11.171143 -16.706479 -0.121718 -0.319661 14.668280 -0.102693 -0.287250 19.889263 0.000004 0.000001 -0.000001 4.375716 2.466759 -8.180827 0.331312 -0.448168 23.522963 0.447709 0.163342 35.677657 0.000001 -0.000001 -0.000001 -6.977126 -10.667856 2.358078 0.112693 -0.066680 22.788639 0.417476 -0.469140 29.897678 0.000001 0.000000 -0.000001 -19.422667 -20.226026 2.624326 0.213063 -0.072649 33.477315 0.246866 -0.036536 33.104349 -0.000000 0.000000 0.000002 -3.851994 4.642826 -2.030493 87.090089 -10.737607 -0.767436 30.092871 -5.682583 -27.211692 -0.743922 0.262946 -0.424644 0.000000 -0.000001 -0.000000 4.593855 8.465761 -6.481300 60.509862 10.136143 -14.021596 45.778516 7.148143 19.151844 13.689339 -3.426834 -2.677830 0.000001 -0.000001 0.000000 
-2.814515 50.598915 103.015289 23.911297 -23.252529 -6.702166 5.265725 -0.716946 2.221772 -5.663058 1.353728 2.575409 0.000000 0.000000 0.000000 -5.679921 1.360146 2.479899 -67.748462 0.721244 15.041653 14.908416 14.198111 -18.680197 -0.000001 0.000000 0.000000 -19.520752 3.090943 -14.887415 0.000000 0.000000 0.000000 13.533065 12.286149 -45.847351 67.504686 -25.443295 27.159201 -20.419568 21.822121 -2.446598 -0.950507 -7.516262 8.582047 2.566212 20.394941 -1.999365 0.967867 1.656722 2.727508 0.000003 0.000004 0.000003 13.329669 -0.994421 14.150522 -0.171354 0.301049 -27.637165 -0.156363 0.306298 -28.787731 -0.000001 0.000001 0.000001 8.552602 -0.361263 2.552882 0.212482 0.648786 -26.433254 0.422929 0.205765 -40.888528 0.000004 0.000001 0.000001 6.149228 3.112637 -12.744919 0.046338 0.299221 -26.657036 0.373710 0.819836 -38.671821 0.000000 0.000000 -0.000002 -5.620581 7.690169 -10.412288 0.211245 0.265097 -43.119838 0.245159 0.240654 -42.818371 -0.000001 -0.000001 -0.000000 -19.127494 2.546780 17.483030 0.000000 0.000000 0.000000 8.238804 -0.098714 58.067973 160.341778 133.889821 -158.935715 44.865457 -12.163804 -5.670165 0.606832 8.469576 -11.222009 -1.352363 -12.093399 3.793162 1.703558 -7.510277 -7.187305 0.000000 0.000002 -0.000002 19.436750 11.170193 -17.752874 -0.122620 -0.318702 13.621588 -0.106680 -0.287211 18.842566 -0.000003 -0.000000 -0.000000 4.393245 2.475375 -9.228069 0.325898 -0.443935 22.476228 0.441696 0.166439 34.631006 0.000000 0.000000 0.000001 -6.967938 -10.659744 1.313165 0.113207 -0.059664 21.741926 0.407021 -0.467385 28.850934 -0.000004 -0.000000 -0.000001 -19.419174 -20.222361 1.578875 0.209904 -0.068454 32.430640 0.242666 -0.032946 32.057718 -0.000001 0.000000 0.000001 -3.362216 3.608527 -2.652775 85.599974 -9.651248 -0.485659 30.149398 -5.731843 -27.314471 -0.513319 -0.349543 -0.436914 -0.000003 -0.000000 -0.000000 4.764253 8.132131 -6.468689 59.810389 10.057153 -13.742726 46.513295 7.323629 19.272079 12.783455 -3.628715 -3.351535 0.000001 -0.000000 -0.000001 
